<svg width="104" height="48" viewBox="0 0 104 48" fill="none" xmlns="http://www.w3.org/2000/svg">
<g clip-path="url(#clip0_1125_11151)">
<path fill-rule="evenodd" clip-rule="evenodd" d="M70.3526 37.8306C70.3526 38.3022 70.1616 38.7548 69.8208 39.0904C69.48 39.426 69.0169 39.6174 68.5319 39.6233H67.6838C66.5987 39.6221 65.5583 39.2024 64.791 38.4563C64.0237 37.7102 63.5921 36.6986 63.5908 35.6435V6.59251C63.5511 6.33732 63.5686 6.0768 63.6419 5.82877C63.7153 5.58074 63.8429 5.35103 64.016 5.15536C64.1891 4.95969 64.4036 4.80266 64.6448 4.69501C64.8861 4.58737 65.1484 4.53164 65.4138 4.53164C65.6792 4.53164 65.9415 4.58737 66.1828 4.69501C66.424 4.80266 66.6385 4.95969 66.8116 5.15536C66.9847 5.35103 67.1123 5.58074 67.1856 5.82877C67.259 6.0768 67.2765 6.33732 67.2368 6.59251V35.6256C67.2368 35.7444 67.2853 35.8584 67.3717 35.9425C67.4582 36.0265 67.5754 36.0737 67.6977 36.0737H68.5458C68.787 36.0731 69.0259 36.1192 69.2486 36.2094C69.4713 36.2995 69.6733 36.4319 69.8428 36.5988C70.0123 36.7657 70.1459 36.9638 70.2358 37.1814C70.3257 37.3991 70.3701 37.6319 70.3664 37.8665L70.3526 37.8306ZM53.2243 16.1488C53.5695 15.8174 54.0349 15.6316 54.52 15.6317C54.9984 15.6376 55.4551 15.8268 55.7908 16.1583C56.1266 16.4898 56.3142 16.9367 56.313 17.402V37.8569C56.3254 38.0966 56.2875 38.3362 56.2018 38.5612C56.116 38.7862 55.9841 38.9919 55.814 39.1658C55.6439 39.3397 55.4393 39.4782 55.2124 39.5728C54.9856 39.6674 54.7414 39.7162 54.4946 39.7162C54.2478 39.7162 54.0036 39.6674 53.7768 39.5728C53.55 39.4782 53.3453 39.3397 53.1752 39.1658C53.0052 38.9919 52.8732 38.7862 52.7874 38.5612C52.7017 38.3362 52.6638 38.0966 52.6763 37.8569V36.1269C50.7204 38.027 48.1628 39.2302 45.4167 39.542V41.4065C45.4167 41.8819 45.2224 42.3379 44.8767 42.6741C44.5309 43.0103 44.062 43.1992 43.573 43.1992C43.084 43.1992 42.6151 43.0103 42.2693 42.6741C41.9235 42.3379 41.7293 41.8819 41.7293 41.4065V39.4255C38.8961 38.9139 36.3363 37.4542 34.4941 35.2996C32.6518 33.145 31.6432 30.4314 31.6432 27.6294C31.6432 24.8274 32.6518 22.1138 34.4941 19.9592C36.3363 17.8046 38.8961 16.345 41.7293 15.8334V13.9017C41.7293 13.4262 41.9235 12.9703 42.2693 12.6341C42.6151 12.2979 43.084 12.109 43.573 12.109C44.062 12.109 44.5309 12.2979 44.8767 12.6341C45.2224 12.9703 45.4167 13.4262 45.4167 13.9017V15.7258C48.1628 16.0377 50.7204 17.2409 52.6763 19.1409V17.402C52.6823 16.9304 52.8792 16.4802 53.2243 16.1488ZM43.997 36.0866C44.4804 36.0865 44.963 36.0475 45.4397 35.9701H45.4213C47.5687 35.6131 49.5004 34.486 50.8345 32.8113C52.1687 31.1367 52.8084 29.0364 52.6271 26.9254C52.4459 24.8144 51.4569 22.8463 49.8556 21.41C48.2543 19.9736 46.1572 19.1735 43.9786 19.1678C43.2268 19.1683 42.4783 19.2647 41.7523 19.4546C39.9026 19.9372 38.2683 20.9997 37.1027 22.4772C35.937 23.9548 35.3053 25.765 35.3053 27.6272C35.3053 29.4894 35.937 31.2996 37.1027 32.7772C38.2683 34.2547 39.9026 35.3172 41.7523 35.7997C42.4843 35.9912 43.2391 36.0877 43.997 36.0866ZM26.4265 18.4373C26.4436 18.374 26.4559 18.3096 26.4634 18.2446C26.4634 18.1639 26.4634 18.1057 26.4818 18.0026C26.4841 17.9757 26.4841 17.9488 26.4818 17.9219V17.8323C26.4818 17.8111 26.4829 17.7903 26.4839 17.77L26.4839 17.7699V17.7699V17.7698C26.486 17.73 26.4879 17.6915 26.4818 17.653C26.478 17.629 26.4711 17.6051 26.4643 17.5814L26.4643 17.5814C26.4545 17.5475 26.445 17.5143 26.445 17.4827C26.433 17.429 26.4161 17.3765 26.3943 17.3258C26.376 17.2673 26.3529 17.2104 26.3251 17.1555C26.3018 17.1092 26.2756 17.0643 26.2468 17.0211C26.2156 16.9686 26.1818 16.9178 26.1454 16.8687C26.1126 16.8249 26.0772 16.783 26.0394 16.7432C26.0257 16.7299 26.012 16.7162 25.9982 16.7022C25.9701 16.6738 25.9412 16.6448 25.9103 16.6177C25.8694 16.5809 25.8263 16.5465 25.7812 16.5146L25.6291 16.4115L25.4862 16.3398C25.4253 16.3099 25.3621 16.2845 25.2973 16.2636C25.272 16.2513 25.2458 16.2408 25.2189 16.2323H25.1452L24.9516 16.1964H24.7718H24.6888H24.6013C24.5363 16.1995 24.4716 16.2069 24.4077 16.2188C24.3501 16.2249 24.2931 16.2354 24.2371 16.2502L24.0712 16.2995L23.9053 16.3667C23.8537 16.3892 23.8043 16.4162 23.7578 16.4474C23.7059 16.4746 23.6565 16.506 23.6103 16.5415C23.5795 16.5624 23.5488 16.5873 23.5181 16.6122C23.5027 16.6247 23.4874 16.6371 23.472 16.6491L23.3522 16.7656C23.3113 16.8084 23.2728 16.8533 23.2369 16.9001L23.1217 17.048L23.0387 17.2003C23.0278 17.2216 23.0191 17.247 23.0105 17.2719C22.9973 17.3101 22.9845 17.3472 22.965 17.3662C22.9327 17.3975 22.9327 17.42 22.9327 17.4513L17.5076 34.8272C17.3826 35.2016 17.1343 35.5256 16.8011 35.7492C16.4679 35.9727 16.0683 36.0834 15.6639 36.0642C15.2596 36.0834 14.86 35.9727 14.5267 35.7492C14.1935 35.5256 13.9452 35.2016 13.8202 34.8272L8.35828 17.4513C8.29475 17.222 8.18441 17.0074 8.03382 16.8204C7.88323 16.6334 7.69548 16.4777 7.48175 16.3627C7.26801 16.2477 7.03266 16.1757 6.78971 16.151C6.54676 16.1263 6.30118 16.1494 6.06759 16.2189C5.83401 16.2884 5.61719 16.4028 5.43006 16.5555C5.24292 16.7082 5.0893 16.8959 4.97833 17.1075C4.86736 17.3191 4.80131 17.5502 4.78413 17.7872C4.76694 18.0241 4.79897 18.262 4.87829 18.4866L10.331 35.867C10.673 36.9669 11.3758 37.9276 12.3321 38.6026C13.2884 39.2775 14.4457 39.6295 15.6271 39.6048C16.8098 39.6308 17.9688 39.2794 18.9269 38.6044C19.8849 37.9294 20.5893 36.968 20.9323 35.867L26.4265 18.509V18.4373ZM97.6671 27.9611C97.7148 27.929 97.7595 27.893 97.8008 27.8535C97.8569 27.8195 97.9108 27.782 97.9621 27.7414C97.9999 27.7017 98.0353 27.6598 98.0681 27.616C98.1046 27.57 98.1384 27.5221 98.1695 27.4725C98.1788 27.4561 98.188 27.4402 98.1972 27.4243C98.2156 27.3924 98.2341 27.3605 98.2525 27.3246L98.3216 27.1678C98.3283 27.1484 98.332 27.1284 98.3356 27.1082C98.3422 27.0725 98.3488 27.0363 98.3724 27.002C98.4092 26.9482 98.4092 26.8989 98.4092 26.8361V26.6524V26.5627V26.4731V26.3879C97.7916 20.2524 92.8366 15.6316 86.8446 15.6316C84.6989 15.6306 82.5899 16.1737 80.7259 17.2073C78.862 18.2409 77.3074 19.7293 76.2158 21.5255C75.1241 23.3218 74.5331 25.3638 74.501 27.45C74.4689 29.5362 74.9969 31.5945 76.0328 33.4217C77.0687 35.2488 78.5768 36.7818 80.4081 37.8691C82.2395 38.9564 84.3308 39.5606 86.4756 39.622C88.6205 39.6833 90.7447 39.1998 92.6386 38.219C94.5326 37.2383 96.1307 35.7942 97.2754 34.0294C97.4154 33.8332 97.5131 33.6115 97.5627 33.3776C97.6123 33.1437 97.6127 32.9024 97.5639 32.6684C97.5151 32.4343 97.4181 32.2123 97.2787 32.0157C97.1394 31.819 96.9605 31.6518 96.753 31.5241C96.5454 31.3965 96.3134 31.3109 96.071 31.2727C95.8286 31.2345 95.5807 31.2443 95.3423 31.3017C95.1038 31.359 94.8798 31.4627 94.6837 31.6064C94.4876 31.7502 94.3234 31.931 94.201 32.1381C93.3912 33.3783 92.2632 34.3921 90.9281 35.0798C89.593 35.7674 88.0968 36.1053 86.5867 36.0601C85.0766 36.0149 83.6046 35.5882 82.3156 34.8219C81.0265 34.0557 79.9648 32.9764 79.235 31.6901C78.5051 30.4038 78.1323 28.9549 78.1531 27.486C78.1739 26.0171 78.5876 24.5788 79.3536 23.3125C80.1195 22.0463 81.2114 20.9957 82.5216 20.2643C83.8318 19.5328 85.3154 19.1457 86.8262 19.1409C90.2785 19.1409 93.2377 21.4535 94.3439 24.7566H82.7286C82.4821 24.7445 82.2356 24.7813 82.0042 24.8647C81.7728 24.9481 81.5612 25.0764 81.3824 25.2417C81.2035 25.4071 81.0611 25.6061 80.9638 25.8267C80.8665 26.0472 80.8163 26.2847 80.8163 26.5246C80.8163 26.7646 80.8665 27.0021 80.9638 27.2226C81.0611 27.4432 81.2035 27.6422 81.3824 27.8075C81.5612 27.9729 81.7728 28.1012 82.0042 28.1846C82.2356 28.268 82.4821 28.3048 82.7286 28.2927H96.5794H96.6715H96.7591H96.8467C96.9105 28.2855 96.9737 28.2735 97.0357 28.2569L97.2016 28.2076L97.3675 28.1403L97.5196 28.0597C97.5706 28.0294 97.6198 27.9965 97.6671 27.9611Z" fill="white"/>
</g>
<defs>
<clipPath id="clip0_1125_11151">
<rect width="93.6" height="38.4" fill="white" transform="translate(4.79993 4.80005)"/>
</clipPath>
</defs>
</svg>
